<svg width="133" height="40" viewBox="0 0 133 40" fill="none" xmlns="http://www.w3.org/2000/svg">
<path d="M10.8874 31.9364C9.46858 31.9364 8.18352 31.7101 7.03195 31.2578C5.90111 30.7848 4.92424 30.0858 4.10183 29.1605C3.2999 28.2352 2.68303 27.094 2.25122 25.7369C1.81942 24.3593 1.60352 22.7656 1.60352 20.9561C1.60352 19.1467 1.81942 17.5428 2.25122 16.1446C2.68303 14.7258 3.2999 13.5434 4.10183 12.5976C4.92424 11.6311 5.90111 10.9012 7.03195 10.4077C8.18352 9.91421 9.46858 9.66746 10.8874 9.66746C12.8201 9.66746 14.424 10.0787 15.6989 10.9012C16.9739 11.7237 17.9917 12.9677 18.7524 14.6332L15.2671 16.4838C14.9587 15.5174 14.4548 14.7463 13.7558 14.1706C13.0568 13.5743 12.1006 13.2761 10.8874 13.2761C9.36568 13.2761 8.15267 13.7902 7.24785 14.8183C6.36376 15.8464 5.92159 17.2858 5.92159 19.1364V22.5291C5.92159 24.4002 6.36376 25.8397 7.24785 26.8472C8.15267 27.8342 9.36568 28.3277 10.8874 28.3277C12.1006 28.3277 13.0876 27.9988 13.8483 27.3407C14.6298 26.6826 15.1951 25.8706 15.5447 24.9041L18.845 26.8472C18.0635 28.4511 17.0252 29.7053 15.7298 30.6101C14.4344 31.4942 12.8201 31.9364 10.8874 31.9364ZM28.4558 31.9364C27.3042 31.9364 26.2659 31.741 25.3406 31.3503C24.4358 30.9597 23.6546 30.3942 22.9965 29.654C22.3592 28.9137 21.8657 28.0296 21.516 27.0014C21.1664 25.9528 20.9917 24.7807 20.9917 23.4853C20.9917 22.1899 21.1664 21.0281 21.516 20C21.8657 18.9719 22.3592 18.098 22.9965 17.3783C23.6546 16.6381 24.4358 16.0726 25.3406 15.6819C26.2659 15.2912 27.3042 15.0959 28.4558 15.0959C29.6074 15.0959 30.6457 15.2912 31.571 15.6819C32.4963 16.0726 33.2777 16.6381 33.9151 17.3783C34.5732 18.098 35.0768 18.9719 35.4264 20C35.776 21.0281 35.9507 22.1899 35.9507 23.4853C35.9507 24.7807 35.776 25.9528 35.4264 27.0014C35.0768 28.0296 34.5732 28.9137 33.9151 29.654C33.2777 30.3942 32.4963 30.9597 31.571 31.3503C30.6457 31.741 29.6074 31.9364 28.4558 31.9364ZM28.4558 28.7595C29.5045 28.7595 30.3269 28.4407 30.9233 27.8034C31.5197 27.166 31.8177 26.2303 31.8177 24.9966V22.0048C31.8177 20.7916 31.5197 19.8663 30.9233 19.2289C30.3269 18.5915 29.5045 18.2728 28.4558 18.2728C27.4276 18.2728 26.6156 18.5915 26.0192 19.2289C25.4228 19.8663 25.1247 20.7916 25.1247 22.0048V24.9966C25.1247 26.2303 25.4228 27.166 26.0192 27.8034C26.6156 28.4407 27.4276 28.7595 28.4558 28.7595ZM49.444 28.8829H49.2898C49.0018 29.8082 48.457 30.5484 47.6551 31.1036C46.8531 31.6588 45.9175 31.9364 44.8483 31.9364C42.8127 31.9364 41.25 31.2065 40.1601 29.7465C39.091 28.2865 38.5563 26.1995 38.5563 23.4853C38.5563 20.7916 39.091 18.7251 40.1601 17.2858C41.25 15.8258 42.8127 15.0959 44.8483 15.0959C45.9175 15.0959 46.8531 15.3735 47.6551 15.9287C48.457 16.4633 49.0018 17.1932 49.2898 18.1185H49.444V8.74216H53.3919V31.5663H49.444V28.8829ZM46.1129 28.667C47.0587 28.667 47.8505 28.4407 48.4879 27.9884C49.1252 27.5361 49.444 26.8884 49.444 26.0453V20.9253C49.444 20.1439 49.1252 19.5168 48.4879 19.0438C47.8505 18.5709 47.0587 18.3344 46.1129 18.3344C45.0847 18.3344 44.252 18.684 43.6146 19.3831C42.9977 20.0617 42.6893 20.9767 42.6893 22.1282V24.9041C42.6893 26.0557 42.9977 26.9706 43.6146 27.6491C44.252 28.3277 45.0847 28.667 46.1129 28.667ZM64.4527 31.9364C63.2601 31.9364 62.1907 31.741 61.245 31.3503C60.3197 30.939 59.5281 30.3737 58.87 29.654C58.2327 28.9137 57.7392 28.0296 57.3895 27.0014C57.0399 25.9528 56.8652 24.7807 56.8652 23.4853C56.8652 22.2104 57.0298 21.059 57.3587 20.0308C57.7083 19.0027 58.2018 18.1288 58.8392 17.4091C59.4765 16.6689 60.258 16.1034 61.1833 15.7128C62.1086 15.3015 63.1572 15.0959 64.3293 15.0959C65.5835 15.0959 66.6734 15.3118 67.5987 15.7436C68.524 16.1754 69.2847 16.7614 69.8811 17.5017C70.4775 18.2419 70.9194 19.1055 71.2074 20.0925C71.5158 21.059 71.67 22.0973 71.67 23.2077V24.5031H60.9674V24.9041C60.9674 26.0761 61.2963 27.0219 61.9544 27.7417C62.6124 28.4407 63.5891 28.7903 64.8845 28.7903C65.8715 28.7903 66.6734 28.5848 67.2903 28.1735C67.9276 27.7622 68.4931 27.2378 68.9866 26.6005L71.1148 28.9754C70.4568 29.9007 69.5522 30.6306 68.4006 31.1653C67.2698 31.6793 65.9536 31.9364 64.4527 31.9364ZM64.391 18.0569C63.3423 18.0569 62.5095 18.4064 61.8927 19.1055C61.2758 19.8046 60.9674 20.7094 60.9674 21.8197V22.0665H67.5678V21.7889C67.5678 20.6785 67.2903 19.7841 66.7351 19.1055C66.2004 18.4064 65.4192 18.0569 64.391 18.0569ZM75.3903 31.5663V10.0376H79.4616V27.9576H87.9435V31.5663H75.3903ZM103.162 31.5663C102.298 31.5663 101.61 31.3195 101.096 30.826C100.602 30.312 100.294 29.6335 100.17 28.7903H99.9852C99.718 29.839 99.1729 30.6306 98.3505 31.1653C97.5281 31.6793 96.5103 31.9364 95.297 31.9364C93.652 31.9364 92.3874 31.5046 91.5033 30.641C90.6192 29.7773 90.177 28.6258 90.177 27.1865C90.177 25.521 90.7734 24.2872 91.9659 23.4853C93.1584 22.6628 94.8549 22.2516 97.0551 22.2516H99.8001V21.0795C99.8001 20.1748 99.5638 19.4757 99.0908 18.9822C98.6177 18.4887 97.857 18.2419 96.8083 18.2419C95.883 18.2419 95.1324 18.4475 94.5568 18.8588C94.0016 19.2495 93.5286 19.7224 93.138 20.2776L90.7939 18.1802C91.3903 17.2549 92.1818 16.5147 93.1688 15.9595C94.1558 15.3838 95.4616 15.0959 97.0859 15.0959C99.2654 15.0959 100.921 15.5894 102.052 16.5764C103.183 17.5634 103.748 18.9822 103.748 20.8328V28.4202H105.352V31.5663H103.162ZM96.6233 29.0679C97.5074 29.0679 98.258 28.8725 98.8748 28.4819C99.4917 28.0913 99.8001 27.5154 99.8001 26.7547V24.6265H97.271C95.2149 24.6265 94.1866 25.2846 94.1866 26.6005V27.1248C94.1866 27.7829 94.3922 28.2764 94.8035 28.6053C95.2353 28.9137 95.8418 29.0679 96.6233 29.0679ZM108.547 8.74216H112.495V18.1185H112.618C112.906 17.1932 113.451 16.4633 114.253 15.9287C115.055 15.3735 115.991 15.0959 117.06 15.0959C119.116 15.0959 120.679 15.8258 121.748 17.2858C122.838 18.7251 123.383 20.7916 123.383 23.4853C123.383 26.1995 122.838 28.2865 121.748 29.7465C120.679 31.2065 119.116 31.9364 117.06 31.9364C115.991 31.9364 115.055 31.6588 114.253 31.1036C113.472 30.5484 112.927 29.8082 112.618 28.8829H112.495V31.5663H108.547V8.74216ZM115.795 28.667C116.824 28.667 117.656 28.3277 118.294 27.6491C118.931 26.9706 119.25 26.0557 119.25 24.9041V22.1282C119.25 20.9767 118.931 20.0617 118.294 19.3831C117.656 18.684 116.824 18.3344 115.795 18.3344C114.85 18.3344 114.058 18.5709 113.42 19.0438C112.804 19.5168 112.495 20.1439 112.495 20.9253V26.0453C112.495 26.8884 112.804 27.5361 113.42 27.9884C114.058 28.4407 114.85 28.667 115.795 28.667Z" fill="white"/>
<path d="M128.873 31.9055C128.03 31.9055 127.403 31.7 126.991 31.2887C126.601 30.8569 126.405 30.312 126.405 29.654V29.0988C126.405 28.4407 126.601 27.8959 126.991 27.4641C127.403 27.0323 128.03 26.8164 128.873 26.8164C129.736 26.8164 130.364 27.0323 130.754 27.4641C131.145 27.8959 131.34 28.4407 131.34 29.0988V29.654C131.34 30.312 131.145 30.8569 130.754 31.2887C130.364 31.7 129.736 31.9055 128.873 31.9055Z" fill="#8946FF"/>
</svg>
